<svg width="61px" height="25px" viewBox="0 0 61 25" version="1.1" xmlns="http://www.w3.org/2000/svg" xmlns:xlink="http://www.w3.org/1999/xlink">
                        <g id="index" stroke="none" stroke-width="1" fill="none" fill-rule="evenodd">
                            <g id="index_320" transform="translate(-10.000000, -15.000000)">
                                <g id="logo_lite" transform="translate(10.000000, 15.000000)">
                                    <path d="M7.9548283,12.9058826 C8.73808246,12.9058826 9.38976231,13.1251439 9.90948084,13.5628916 C10.4288124,14.000252 10.6884782,14.6026394 10.6884782,15.3688916 C10.6884782,16.1347564 10.4288124,16.7371438 9.90948084,17.1748915 C9.38976231,17.6126393 8.73808246,17.8319005 7.9548283,17.8319005 L3.88182927,17.8319005 L3.88182927,12.9058826 L7.9548283,12.9058826 L7.9548283,12.9058826 Z M10.3057517,3 L6.72460844,9.48563948 L3.88182927,9.48563948 L3.88182927,3 L0,3 L0,21.2521437 L8.5449778,21.2521437 C9.49347382,21.2521437 10.3475459,21.1057113 11.1052592,20.8143959 C11.8629724,20.5226932 12.5061386,20.1116752 13.0359188,19.5828915 C13.5656989,19.0537203 13.9716443,18.4292519 14.2549161,17.708324 C14.5378009,16.9877834 14.6794368,16.2075853 14.6794368,15.3688916 C14.6794368,14.5658376 14.5645027,13.8542069 14.3350216,13.2343871 C14.1059275,12.6141799 13.7990498,12.0807475 13.4132275,11.6337025 C13.0281791,11.1862701 12.5966927,10.8217385 12.1195424,10.5389457 C11.6427789,10.256153 11.156341,10.060135 10.6613894,9.95050434 L14.7614772,3 L10.3057517,3 L10.3057517,3 Z" id="path22" fill="currentColor" transform="translate(7.380739, 12.126072) scale(1, -1) translate(-7.380739, -12.126072) "></path>
                                    <polygon id="path124" fill="currentColor" transform="translate(24.451011, 12.126072) scale(1, -1) translate(-24.451011, -12.126072) " points="18 3 18 21.2521437 30.9020225 21.2521437 30.9020225 17.8319005 21.8818293 17.8319005 21.8818293 13.9731349 30.7108528 13.9731349 30.7108528 10.5528917 21.8818293 10.5528917 21.8818293 3"></polygon>
                                    <g id="rocket" transform="translate(35.000000, 0.000000)" fill="#eb4c2f">
                                        <path d="M11.0806559,5.29599393 C10.5681652,5.20076121 10.6113326,5.45320864 10.7843266,5.66239783 C10.844696,5.74052096 10.9157761,5.80928219 11.0040582,5.89870413 C12.087137,7.10573864 12.4944681,7.64356145 11.0962351,7.78431219 C10.2487917,7.8679233 9.75447668,7.96315602 8.98038529,8.73373408 C8.97356939,8.74051336 8.97486765,8.74019055 8.96902548,8.74341877 C8.96902548,8.74180464 8.96902548,8.74148183 8.96967459,8.74051336 C8.97064829,8.74051336 8.97259569,8.74051336 8.97356939,8.74019055 C9.51527109,6.1869849 6.40981766,5.61591134 5.09402457,4.81111407 C5.05248004,4.7862567 5.02359362,4.78496542 5.00314592,4.79561857 C4.99308434,4.81563357 4.99405804,4.84565609 5.01937424,4.88665461 C5.82786971,6.19440983 6.40235262,9.2815644 8.96610438,8.74503289 C8.96415698,8.74729264 8.9579902,8.75504039 8.9579902,8.75504039 C8.18519707,9.52368151 8.08555512,10.025671 8.00538717,10.8721124 C7.87263943,12.2628331 7.33548167,11.8593046 6.11024265,10.7881785 C6.01871489,10.7023076 5.95023131,10.6338692 5.87103706,10.5709187 C5.65682308,10.4098301 5.41631921,10.3565644 5.5107681,10.8663016 C5.67856907,11.734695 6.49939805,13.9650778 7.50523001,14.6207309 C8.97778875,15.5946874 10.6707283,15.2570147 11.1368059,15.5982384 C14.374358,17.9228855 19.0546087,19.8898449 19.6995225,19.4078705 L19.7021191,19.4114215 C19.7017945,19.410453 19.7108824,19.4072248 19.7144526,19.4030281 C19.7144526,19.4030281 19.7086104,19.4010912 19.7160754,19.4010912 L19.7176983,19.3949575 C19.7176983,19.3949575 19.7199702,19.3917293 19.7170491,19.3901152 C19.7254879,19.3901152 19.728409,19.3894696 19.7303564,19.3830131 C19.7303564,19.3830131 19.7316546,19.3817218 19.7345757,19.3804305 C19.7345757,19.3817218 19.7339266,19.3817218 19.7339266,19.3830131 L19.7352249,19.3804305 L19.7345757,19.3804305 C19.7352249,19.3749425 19.7397688,19.3710687 19.7397688,19.3655807 L19.7397688,19.3671948 C20.2211011,18.725423 18.2178759,14.0770973 15.8644433,10.8737265 C15.521701,10.4059563 15.8524344,8.7240494 14.866401,7.26327616 C14.1958463,6.27091884 11.9504944,5.46612154 11.0806559,5.29599393 M25.218778,12.5039817 C25.2242955,19.3568644 19.6365566,24.9123223 12.7473055,24.9132907 C5.8522122,24.9152277 0.263824105,19.3546047 0.265122371,12.5020448 C0.265122371,5.64883927 5.84994022,0.0882162821 12.7421125,0.089830397 C19.6388286,0.0914445119 25.2242955,5.64657952 25.218778,12.5039817" id="path142" transform="translate(12.741952, 12.501561) scale(1, -1) translate(-12.741952, -12.501561) "></path>
                                        <path d="M15.690508,10.9122386 C15.6681129,10.0725764 14.9663999,9.41692328 14.1127896,9.44952838 C13.2783289,9.48310195 12.6145901,10.1852416 12.6502924,11.0271635 C12.6762578,11.8623061 13.3877078,12.5118256 14.2293091,12.4853541 C15.071884,12.4530718 15.7278331,11.7454442 15.690508,10.9122386" id="path138"></path>
                                    </g>
                                </g>
                            </g>
                        </g>
                    </svg>